<?xml version="1.0" encoding="UTF-8"?>
<svg version="1.1" xmlns="http://www.w3.org/2000/svg" width="710" height="599">
<path d="M0 0 C1.91900116 -0.00472824 1.91900116 -0.00472824 3.87677002 -0.009552 C5.28861525 -0.00775995 6.70046018 -0.00570843 8.11230469 -0.00341797 C9.55946875 -0.00409184 11.00663271 -0.00506255 12.45379639 -0.00631714 C15.50045846 -0.00779583 18.54709132 -0.00563783 21.59375 -0.00097656 C25.46328753 0.00466005 29.33275476 0.00148194 33.20228958 -0.00454903 C36.20009874 -0.00820241 39.1978919 -0.00699336 42.1957016 -0.00442123 C43.61957559 -0.0037619 45.04345111 -0.00454495 46.4673233 -0.00690079 C55.37255248 -0.01837902 64.16614529 0.30137295 73.03417969 1.12939453 C75.82714454 7.0753546 77.46002631 13.09229564 79.04931641 19.45458984 C79.33433014 20.57601379 79.61934387 21.69743774 79.91299438 22.85284424 C80.85201613 26.5530589 81.78293061 30.25526324 82.71386719 33.95751953 C83.36968291 36.54772202 84.02596782 39.13780102 84.68289185 41.72772217 C86.23613106 47.85546722 87.78366667 53.98463702 89.32900536 60.11437869 C91.58085205 69.04547734 93.84137567 77.97437994 96.101717 86.90333176 C96.43916349 88.23639575 96.77660591 89.56946078 97.11404419 90.90252686 C97.27928026 91.55526353 97.44451634 92.2080002 97.61475956 92.88051677 C98.73539179 97.30829045 99.85349776 101.7366971 100.97067261 106.16534424 C103.59008049 116.54365582 106.21473128 126.92075177 108.90576172 137.28076172 C109.10925673 138.07362202 109.31275173 138.86648232 109.52241325 139.68336868 C110.21270741 143.19376726 110.21270741 143.19376726 112.03417969 146.12939453 C112.34801102 144.9197403 112.66184235 143.71008606 112.98518372 142.46377563 C115.9980646 130.85097236 119.01146763 119.23830468 122.02533436 107.62575722 C123.57337012 101.66105059 125.12124516 95.69630237 126.66870117 89.73144531 C134.41984962 59.85425851 142.19625914 29.9839441 150.03417969 0.12939453 C167.37692342 0.08250851 184.71964715 0.04732481 202.06243992 0.02577019 C210.11643668 0.01549245 218.17039388 0.00149978 226.22436523 -0.02148438 C233.25071156 -0.04152623 240.2770292 -0.0543473 247.30340332 -0.05878246 C251.01789812 -0.06137171 254.73231094 -0.06738295 258.44677925 -0.08206558 C262.61079548 -0.09838906 266.77467252 -0.09857831 270.9387207 -0.09765625 C272.14714127 -0.1048468 273.35556183 -0.11203735 274.6006012 -0.1194458 C283.24014065 -0.09890771 291.50894523 0.81492028 300.03417969 2.12939453 C304.59257949 22.5137405 308.9000517 42.9485229 313.15136719 63.39892578 C313.28720372 64.05220399 313.42304026 64.70548221 313.56299305 65.37855673 C315.82705814 76.26750751 318.08681128 87.15735242 320.3459549 98.04732513 C322.06216506 106.32006188 323.77908593 114.59264916 325.49895966 122.86462516 C326.43089419 127.34747447 327.36007632 131.83088941 328.28878784 136.31440735 C328.77135642 138.63662922 329.25402684 140.95882992 329.73681641 143.28100586 C329.95599228 144.34203522 330.17516815 145.40306458 330.40098572 146.49624634 C330.60259811 147.4638237 330.80421051 148.43140106 331.01193237 149.42829895 C331.18627745 150.26889264 331.36062252 151.10948633 331.54025078 151.97555256 C332.03552221 154.29371354 332.03552221 154.29371354 333.03417969 157.12939453 C333.33674179 155.98979027 333.33674179 155.98979027 333.64541626 154.8271637 C343.84061764 116.43551981 354.09532889 78.06021979 364.48595428 39.72095871 C365.22358584 36.99735634 365.95990599 34.27340253 366.69586182 31.54934692 C367.85362894 27.26467913 369.01480309 22.98094972 370.17875481 18.69795799 C370.60801018 17.1164529 371.03613355 15.53464008 371.46307564 13.95250893 C372.04505102 11.79689074 372.63119864 9.64245182 373.21850586 7.48828125 C373.54678879 6.27776093 373.87507172 5.0672406 374.21330261 3.82003784 C375.03417969 1.12939453 375.03417969 1.12939453 376.03417969 0.12939453 C378.01132225 0.03005515 379.99204359 0.00139955 381.97167969 0 C383.88001587 -0.00472824 383.88001587 -0.00472824 385.8269043 -0.009552 C387.22932977 -0.0077607 388.63175494 -0.00570936 390.03417969 -0.00341797 C391.46850603 -0.00409158 392.90283225 -0.00506209 394.3371582 -0.00631714 C397.35352661 -0.0077952 400.36986549 -0.00563864 403.38623047 -0.00097656 C407.2315002 0.00467988 411.0766995 0.0014686 414.92196655 -0.00454903 C417.89044715 -0.00818687 420.85891146 -0.00700064 423.82739258 -0.00442123 C425.24340829 -0.00375871 426.65942553 -0.00455655 428.07543945 -0.00690079 C435.47683745 -0.01645213 442.69753482 0.11567316 450.03417969 1.12939453 C452.59855014 7.51181777 454.33448031 13.90741377 455.92578125 20.59301758 C456.19782883 21.71803177 456.4698764 22.84304596 456.75016785 24.00215149 C457.64649974 27.71400333 458.53567154 31.4275311 459.42480469 35.14111328 C460.05349276 37.75074352 460.68258042 40.36027422 461.31219482 42.96968079 C462.80235795 49.14939942 464.28738754 55.33033958 465.77053905 61.51174432 C467.43134307 68.43254003 469.09764542 75.35200753 470.76453829 82.27133882 C473.38827319 93.16286233 476.0083441 104.05525959 478.625 114.94848633 C482.08331493 129.34488086 485.55716461 143.73750668 489.03417969 158.12939453 C493.62396873 137.61587979 497.93629493 117.05119597 502.15136719 96.45751953 C502.28720372 95.79393118 502.42304026 95.13034283 502.56299305 94.44664574 C504.25019398 86.20302024 505.93398896 77.95870068 507.61637712 69.71409178 C509.90793804 58.48429599 512.20281382 47.25517745 514.49895966 36.02631831 C515.43014878 31.47200272 516.35967647 26.91734988 517.28878784 22.36260986 C517.77143044 20.00003383 518.25410484 17.63746429 518.73681641 15.27490234 C518.95599228 14.19876678 519.17516815 13.12263123 519.40098572 12.0138855 C519.60259811 11.02810516 519.80421051 10.04232483 520.01193237 9.02667236 C520.18627745 8.17225178 520.36062252 7.31783119 520.54025078 6.43751907 C520.99317373 4.32101494 521.49458236 2.22527801 522.03417969 0.12939453 C530.55315397 0.10620442 539.07211502 0.08844544 547.59111309 0.07758236 C551.54700016 0.07236813 555.50286561 0.06529699 559.45874023 0.05395508 C563.27775599 0.04307432 567.09675096 0.03710669 570.91578102 0.03451729 C572.37139017 0.03267239 573.82699821 0.02906979 575.2825985 0.02366447 C577.32441015 0.01638517 579.3661364 0.01540649 581.40795898 0.01586914 C582.56933884 0.01364853 583.73071869 0.01142792 584.92729187 0.00914001 C587.75282397 0.11850444 590.28824335 0.48050916 593.03417969 1.12939453 C590.03507215 14.23446247 586.70928374 27.24110842 583.29199219 40.24267578 C582.72978336 42.3881397 582.16776654 44.53365395 581.60592651 46.67921448 C580.10399423 52.41272373 578.5995019 58.14555822 577.09448242 63.87825775 C575.51952629 69.87906519 573.94686767 75.88047468 572.37402344 81.88183594 C570.13591043 90.42086554 567.89705898 98.95970088 565.65729904 107.49829865 C562.00371286 121.42720822 558.35660551 135.35780069 554.71386719 149.28955078 C538.80821086 210.11405044 538.80821086 210.11405044 531.72167969 236.69189453 C531.47538818 237.61621277 531.22909668 238.54053101 530.9753418 239.49285889 C530.31270096 241.97753378 529.64852263 244.46178965 528.98339844 246.94580078 C528.70238533 247.99824226 528.70238533 247.99824226 528.41569519 249.07194519 C527.68640151 251.7865875 526.92338641 254.46177435 526.03417969 257.12939453 C521.92176947 258.11749497 518.08071612 258.25031666 513.85717773 258.24291992 C513.15419052 258.24306595 512.45120331 258.24321198 511.72691345 258.24336243 C509.4165431 258.24266894 507.10625461 258.2349031 504.79589844 258.22705078 C503.18878727 258.2251846 501.58167554 258.22376164 499.9745636 258.22276306 C495.75449032 258.21895368 491.53445171 258.20913693 487.31439209 258.19805908 C483.00419585 258.18781096 478.69399398 258.18325816 474.38378906 258.17822266 C465.9339034 258.1675132 457.48404586 258.1504558 449.03417969 258.12939453 C446.28390815 247.42113092 443.53393555 236.71279057 440.78417969 226.00439453 C440.57563229 225.19224739 440.36708488 224.38010025 440.15221786 223.54334259 C433.04494416 195.86508453 425.94364327 168.18529793 418.84667969 140.50439453 C418.51234169 139.20034794 418.51234169 139.20034794 418.17124939 137.86995697 C415.45868205 127.28982352 412.74632129 116.70963712 410.03417969 106.12939453 C407.85576256 109.91092954 406.89916013 113.99643853 405.82617188 118.18774414 C405.61403014 119.00146925 405.40188841 119.81519436 405.18331814 120.6535778 C404.47834743 123.36188856 403.77973396 126.07179829 403.08105469 128.78173828 C402.58385519 130.69653421 402.08623231 132.61122025 401.58821106 134.52580261 C400.53060728 138.59478626 399.47567717 142.66444972 398.42288208 146.73468018 C396.78750394 153.05676257 395.14585197 159.37720358 393.50268555 165.69726562 C392.95646154 167.79839954 392.41024266 169.8995348 391.86402893 172.00067139 C391.46007495 173.55452168 391.46007495 173.55452168 391.04796028 175.13976288 C390.23380447 178.27236352 389.42021234 181.40511003 388.60679626 184.53790283 C384.59092387 200.00310622 380.5554271 215.46293745 376.47839355 230.91213989 C375.89239011 233.13346452 375.30734174 235.35504134 374.7232666 237.57687378 C373.93458889 240.57674148 373.14310985 243.57585352 372.35058594 246.57470703 C372.12570999 247.43162643 371.90083405 248.28854584 371.66914368 249.1714325 C370.14910764 254.89953863 370.14910764 254.89953863 369.03417969 257.12939453 C361.39322134 258.87024759 353.01242253 258.26522175 345.23095703 258.24291992 C343.86989341 258.24263725 342.50882964 258.24279735 341.14776611 258.24336243 C337.48317228 258.24364727 333.81861172 258.23780143 330.15402555 258.23078847 C326.31302278 258.22450255 322.47201909 258.22394701 318.63101196 258.22276306 C311.3710644 258.21966511 304.11113205 258.21147258 296.85119116 258.20141357 C288.58026021 258.19020454 280.3093285 258.18472995 272.03839183 258.17971814 C255.03697901 258.16928856 238.03558096 258.15171908 221.03417969 258.12939453 C219.4938808 254.54320016 218.49141498 251.09279333 217.69944763 247.27374268 C217.454133 246.10189423 217.20881836 244.93004578 216.95606995 243.72268677 C216.56245522 241.80720535 216.56245522 241.80720535 216.16088867 239.85302734 C215.87688985 238.4875197 215.5924965 237.12209407 215.30773926 235.75674438 C214.53697684 232.05495899 213.7720428 228.35199161 213.0083797 224.648736 C212.2069069 220.76594959 211.40083605 216.88411747 210.59547424 213.00213623 C209.24305582 206.47947839 207.8944694 199.95603695 206.5480957 193.43212891 C204.99466438 185.90517679 203.43497627 178.37954186 201.87194771 170.8545773 C200.36564212 163.601864 198.86403534 156.34818525 197.36445808 149.09407806 C196.72769317 146.01424741 196.08926491 142.93476866 195.44946098 139.85556793 C194.69464335 136.22185121 193.94395507 132.58730456 193.19634247 128.95209885 C192.79255565 126.9935711 192.38473298 125.03587676 191.97676086 123.07821655 C190.68249784 116.76353096 189.61402003 110.55054252 189.03417969 104.12939453 C188.37417969 104.12939453 187.71417969 104.12939453 187.03417969 104.12939453 C186.95021439 104.69455276 186.86624908 105.259711 186.77973938 105.84199524 C185.16002336 115.68953685 182.43787576 125.24048544 179.82714844 134.85986328 C179.30391867 136.80076333 178.78108484 138.74177016 178.25862122 140.68287659 C176.870403 145.83605383 175.47670588 150.98773348 174.08172607 156.13908386 C172.64828869 161.43553377 171.21941204 166.73321379 169.79003906 172.03076172 C167.55162967 180.3246082 165.31025504 188.61764772 163.06689453 196.91015625 C160.54248854 206.2423904 158.0293841 215.57760772 155.52246094 224.91455078 C154.62848013 228.23852623 153.73405544 231.56238162 152.83926392 234.88613892 C152.3047351 236.8734855 151.7711779 238.86109368 151.23861694 240.84896851 C150.52779524 243.50059895 149.81288634 246.15108946 149.09667969 248.80126953 C148.89685989 249.55074356 148.6970401 250.30021759 148.49116516 251.07240295 C147.1485341 256.01504012 147.1485341 256.01504012 146.03417969 257.12939453 C137.6167031 258.64731106 128.92022825 258.25878471 120.40136719 258.22705078 C118.9135035 258.22518166 117.42563919 258.2237601 115.93777466 258.22276306 C112.05479175 258.21897675 108.17184729 258.20918047 104.28887939 258.19805908 C100.31335978 258.1877606 96.33783385 258.18324751 92.36230469 258.17822266 C84.58624565 258.16755403 76.81021809 258.15052533 69.03417969 258.12939453 C67.44683931 253.58756843 66.2038386 249.00959933 65.08569336 244.3347168 C64.90122304 243.57262626 64.71675272 242.81053572 64.52669239 242.02535152 C63.91598251 239.49943758 63.30902737 236.97263766 62.70214844 234.44580078 C62.2693227 232.65168554 61.8362943 230.85761917 61.40307617 229.06359863 C60.24501422 224.26459835 59.09038786 219.46477774 57.93658066 214.66475296 C57.22305289 211.69760487 56.50851608 208.73070169 55.79360962 205.7638855 C48.11714854 173.90686504 40.51480858 142.03301337 33.03417969 110.12939453 C25.87695804 144.38093127 18.84618324 178.65783431 11.84667969 212.94189453 C11.62889736 214.00860256 11.41111504 215.07531059 11.18673325 216.17434311 C8.46781239 229.49240742 5.75033205 242.81076534 3.03417969 256.12939453 C-19.19232964 263.53823097 -49.75215677 257.98474563 -72.96582031 257.12939453 C-64.85970951 225.41620957 -56.73313538 193.70830309 -48.59082031 162.00439453 C-48.29063744 160.83548424 -47.99045456 159.66657394 -47.68117523 158.46224213 C-39.18614906 125.38384807 -30.66709249 92.31182265 -22.09082031 59.25439453 C-21.87514656 58.42303734 -21.65947281 57.59168015 -21.43726349 56.73513031 C-17.78160091 42.64476042 -17.78160091 42.64476042 -16.04483032 35.97250366 C-15.68808731 34.60194976 -15.33134693 33.23139517 -14.97460938 31.86083984 C-14.8037425 31.20444078 -14.63287563 30.54804173 -14.45683098 29.87175179 C-13.33185059 25.54654787 -12.21654631 21.21893076 -11.10546875 16.89013672 C-10.82420135 15.79877411 -10.54293396 14.7074115 -10.25314331 13.58297729 C-9.73986414 11.59063459 -9.2291956 9.59761664 -8.72171021 7.60379028 C-8.50175385 6.75227386 -8.28179749 5.90075745 -8.05517578 5.0234375 C-7.86712372 4.2886618 -7.67907166 3.55388611 -7.48532104 2.79684448 C-6.30470238 -0.99260645 -3.55188332 0.00249843 0 0 Z " fill="#FD8339" transform="translate(96.9658203125,171.87060546875)"/>
<path d="M0 0 C4.56557517 20.38263376 8.86590899 40.81930623 13.1171875 61.26953125 C13.25302403 61.92280946 13.38886057 62.57608768 13.52881336 63.2491622 C15.79287845 74.13811298 18.0526316 85.02795789 20.31177521 95.9179306 C22.02798538 104.19066735 23.74490624 112.46325463 25.46477997 120.73523062 C26.3967145 125.21807994 27.32589663 129.70149488 28.25460815 134.18501282 C28.73717673 136.50723469 29.21984715 138.82943539 29.70263672 141.15161133 C29.92181259 142.21264069 30.14098846 143.27367004 30.36680603 144.36685181 C30.56841843 145.33442917 30.77003082 146.30200653 30.97775269 147.29890442 C31.15209776 148.13949811 31.32644283 148.9800918 31.50607109 149.84615803 C32.00134252 152.164319 32.00134252 152.164319 33 155 C33.20170807 154.24026382 33.40341614 153.48052765 33.61123657 152.69776917 C43.80643795 114.30612528 54.0611492 75.93082526 64.4517746 37.59156418 C65.18940615 34.86796181 65.9257263 32.144008 66.66168213 29.41995239 C67.81944925 25.1352846 68.9806234 20.85155519 70.14457512 16.56856346 C70.57383049 14.98705837 71.00195386 13.40524555 71.42889595 11.8231144 C72.01087133 9.6674962 72.59701895 7.51305728 73.18432617 5.35888672 C73.5126091 4.14836639 73.84089203 2.93784607 74.17912292 1.69064331 C75 -1 75 -1 76 -2 C77.97714256 -2.09933938 79.95786391 -2.12799498 81.9375 -2.12939453 C83.84583618 -2.13412277 83.84583618 -2.13412277 85.79272461 -2.13894653 C87.19515009 -2.13715523 88.59757525 -2.1351039 90 -2.1328125 C91.43432634 -2.13348611 92.86865257 -2.13445662 94.30297852 -2.13571167 C97.31934692 -2.13718973 100.3356858 -2.13503317 103.35205078 -2.13037109 C107.19732051 -2.12471465 111.04251981 -2.12792593 114.88778687 -2.13394356 C117.85626746 -2.1375814 120.82473177 -2.13639517 123.79321289 -2.13381577 C125.2092286 -2.13315324 126.62524584 -2.13395108 128.04125977 -2.13629532 C135.44265777 -2.14584666 142.66335513 -2.01372138 150 -1 C152.56437045 5.38242324 154.30030062 11.77801923 155.89160156 18.46362305 C156.16364914 19.58863724 156.43569672 20.71365143 156.71598816 21.87275696 C157.61232006 25.58460879 158.50149185 29.29813656 159.390625 33.01171875 C160.01931307 35.62134898 160.64840073 38.23087969 161.27801514 40.84028625 C162.76817826 47.02000489 164.25320785 53.20094505 165.73635936 59.38234979 C167.39716338 66.30314549 169.06346574 73.222613 170.7303586 80.14194429 C173.3540935 91.0334678 175.97416441 101.92586506 178.59082031 112.8190918 C182.04913524 127.21548633 185.52298492 141.60811215 189 156 C193.58978904 135.48648526 197.90211524 114.92180144 202.1171875 94.328125 C202.25302403 93.66453665 202.38886057 93.0009483 202.52881336 92.31725121 C204.21601429 84.07362571 205.89980927 75.82930615 207.58219743 67.58469725 C209.87375835 56.35490145 212.16863413 45.12578292 214.46477997 33.89692378 C215.39596909 29.34260819 216.32549678 24.78795535 217.25460815 20.23321533 C217.73725076 17.8706393 218.21992515 15.50806976 218.70263672 13.14550781 C219.03140053 11.53130447 219.03140053 11.53130447 219.36680603 9.88449097 C219.56841843 8.89871063 219.77003082 7.9129303 219.97775269 6.89727783 C220.2392703 5.61564695 220.2392703 5.61564695 220.50607109 4.30812454 C220.95899404 2.19162041 221.46040267 0.09588348 222 -2 C230.51897428 -2.02319011 239.03793534 -2.04094909 247.5569334 -2.05181217 C251.51282048 -2.0570264 255.46868592 -2.06409754 259.42456055 -2.07543945 C263.2435763 -2.08632021 267.06257127 -2.09228784 270.88160133 -2.09487724 C272.33721048 -2.09672214 273.79281852 -2.10032474 275.24841881 -2.10573006 C277.29023047 -2.11300936 279.33195671 -2.11398804 281.3737793 -2.11352539 C282.53515915 -2.115746 283.696539 -2.11796661 284.89311218 -2.12025452 C287.71864428 -2.01089009 290.25406367 -1.64888537 293 -1 C290.00089246 12.10506794 286.67510405 25.11171388 283.2578125 38.11328125 C282.69560367 40.25874517 282.13358686 42.40425942 281.57174683 44.54981995 C280.06981454 50.28332919 278.56532222 56.01616369 277.06030273 61.74886322 C275.4853466 67.74967066 273.91268799 73.75108015 272.33984375 79.75244141 C270.10173074 88.29147101 267.86287929 96.83030635 265.62311935 105.36890411 C261.96953317 119.29781369 258.32242582 133.22840616 254.6796875 147.16015625 C238.77403117 207.98465591 238.77403117 207.98465591 231.6875 234.5625 C231.4412085 235.48681824 231.19491699 236.41113647 230.94116211 237.36346436 C230.27852127 239.84813925 229.61434294 242.33239512 228.94921875 244.81640625 C228.76187668 245.51803391 228.57453461 246.21966156 228.3815155 246.94255066 C227.65222182 249.65719297 226.88920673 252.33237982 226 255 C221.88758978 255.98810044 218.04653643 256.12092213 213.82299805 256.11352539 C213.12001083 256.11367142 212.41702362 256.11381744 211.69273376 256.1139679 C209.38236341 256.11327441 207.07207492 256.10550857 204.76171875 256.09765625 C203.15460759 256.09579006 201.54749585 256.09436711 199.94038391 256.09336853 C195.72031063 256.08955915 191.50027203 256.07974239 187.2802124 256.06866455 C182.97001616 256.05841643 178.6598143 256.05386363 174.34960938 256.04882812 C165.89972371 256.03811867 157.44986617 256.02106127 149 256 C148.0299971 252.22326499 147.06002517 248.44652203 146.09007645 244.6697731 C145.72555658 243.25042724 145.36103167 241.83108267 144.99650192 240.41173935 C142.72718593 231.57580181 140.45848195 222.73970764 138.19091797 213.90332031 C137.30699523 210.45897691 136.42303743 207.01464251 135.5390625 203.5703125 C135.31462841 202.69579437 135.09019432 201.82127625 134.8589592 200.92025757 C131.85618413 189.22057426 128.84801146 177.52229469 125.83459473 165.8253479 C124.2512928 159.67921892 122.67013968 153.53253773 121.08955383 147.38570976 C120.00872935 143.1829645 118.92679786 138.98051122 117.84216309 134.77874756 C110.04321849 104.56123311 110.04321849 104.56123311 106.9921875 91.328125 C106.7969046 90.49085876 106.6016217 89.65359253 106.40042114 88.79095459 C104.77265545 81.55137735 103.84344172 74.36810429 103.9375 66.9375 C103.94652344 65.99777344 103.95554687 65.05804688 103.96484375 64.08984375 C103.98224609 63.05537109 103.98224609 63.05537109 104 62 C103.34 62 102.68 62 102 62 C102.03480469 62.59683594 102.06960938 63.19367188 102.10546875 63.80859375 C102.63727338 80.85166594 97.20868535 97.52989519 92.84912109 113.82519531 C91.89916688 117.37700802 90.96344803 120.93239284 90.03076172 124.48876953 C89.43795271 126.7482745 88.8422607 129.00700394 88.24609375 131.265625 C86.82037762 136.67438531 85.41047163 142.08724823 84 147.5 C83.23530143 150.4313445 82.47044706 153.36264832 81.70556641 156.29394531 C81.26714248 157.97543002 80.8292228 159.6570464 80.39208984 161.33886719 C78.13998586 170.0025931 75.82711907 178.6476386 73.45735168 187.27999878 C72.88819366 189.35332132 72.31909601 191.42666043 71.75 193.5 C71.46432663 194.54000153 71.46432663 194.54000153 71.17288208 195.60101318 C67.63180772 208.50873436 64.27449177 221.45993946 61.00683594 234.43945312 C60.82762604 235.14606079 60.64841614 235.85266846 60.46377563 236.58068848 C59.98136184 238.48285665 59.50250002 240.38592468 59.02392578 242.2890625 C57.84184369 246.57319405 56.40538611 250.78384167 55 255 C34.21 255 13.42 255 -8 255 C-12.44968268 240.53853128 -12.44968268 240.53853128 -13.9375 233.8125 C-15.23228 228.0610842 -16.69493498 222.38324989 -18.3125 216.71484375 C-21.10876158 206.77834376 -23.59679232 196.7727068 -26.0625 186.75 C-29.34037939 173.33293907 -29.34037939 173.33293907 -32.99609375 160.015625 C-35.85249714 150.21610729 -38.20681497 140.28667926 -40.64550781 130.37695312 C-42.93617296 121.08220561 -45.29724799 111.8382214 -47.97705078 102.64648438 C-50.38913891 94.04816737 -52.43693527 85.34955529 -54.57006836 76.67871094 C-56.94825986 67.02610544 -59.40752116 57.41244586 -62.10549927 47.84405518 C-64.44786431 39.4909052 -66.55525196 31.08029639 -68.6496582 22.66210938 C-69.32601799 19.94570896 -70.00755058 17.23063874 -70.68945312 14.515625 C-71.12269851 12.78132558 -71.5556529 11.04695344 -71.98828125 9.3125 C-72.19133377 8.50433838 -72.39438629 7.69617676 -72.60359192 6.86352539 C-74 1.23006642 -74 1.23006642 -74 -1 C-67.08493201 -1.17090883 -60.16966084 -1.3302356 -53.25415039 -1.48217773 C-50.91034146 -1.53496117 -48.56658681 -1.59022465 -46.22290039 -1.64819336 C-9.45142462 -2.55273234 -9.45142462 -2.55273234 0 0 Z " fill="#FECA31" transform="translate(397,174)"/>
<path d="M0 0 C24.75 0 49.5 0 75 0 C78.37247484 7.86910797 78.37247484 7.86910797 79.24609375 11.75 C79.44396484 12.60722656 79.64183594 13.46445313 79.84570312 14.34765625 C80.04099609 15.22292969 80.23628906 16.09820312 80.4375 17 C82.12045253 24.42312394 83.98332561 31.7812764 85.96264648 39.13085938 C87.62912796 45.32422562 89.21550362 51.53843387 90.8125 57.75 C91.51532243 60.47924464 92.21861714 63.20836753 92.921875 65.9375 C93.09711197 66.61778259 93.27234894 67.29806519 93.45289612 67.9989624 C95.14957717 74.58433288 96.85485791 81.16746362 98.5625 87.75 C98.84714111 88.84731445 99.13178223 89.94462891 99.42504883 91.07519531 C99.99702144 93.2799606 100.56904268 95.48471326 101.14111328 97.68945312 C102.5948356 103.29277169 104.04735043 108.89640326 105.5 114.5 C106.08332769 116.75000146 106.66666102 119.00000146 107.25 121.25 C110.75 134.75 114.25 148.25 117.75 161.75 C118.03866943 162.86342773 118.32733887 163.97685547 118.62475586 165.12402344 C119.20892558 167.37727279 119.79307267 169.63052801 120.37719727 171.88378906 C121.8225496 177.45912197 123.26827679 183.0343571 124.71484375 188.609375 C124.9986792 189.70354736 125.28251465 190.79771973 125.57495117 191.92504883 C126.14915147 194.13847475 126.72353245 196.35185381 127.2980957 198.56518555 C128.72106354 204.05070868 130.13944972 209.53735376 131.54710388 215.02682495 C132.25422854 217.78440997 132.96261689 220.54166997 133.67092896 223.2989502 C134.16863988 225.23898486 134.66431617 227.17954116 135.15991211 229.12011719 C137.0590351 236.51262383 139.0823039 243.84559966 141.2590332 251.16088867 C142 254 142 254 142 257 C162.79 257 183.58 257 205 257 C206.32 251.72 207.64 246.44 209 241 C211.29235478 232.036586 211.29235478 232.036586 212.09472656 228.92578125 C212.27265747 228.23564941 212.45058838 227.54551758 212.63391113 226.83447266 C212.90793762 225.77172119 212.90793762 225.77172119 213.1875 224.6875 C213.57655067 223.17709706 213.9655468 221.66668006 214.35449219 220.15625 C214.95840619 217.81103987 215.56236233 215.46584068 216.16653442 213.12069702 C217.5838068 207.61892487 218.99782474 202.11632365 220.41015625 196.61328125 C227.3118836 169.72599083 227.3118836 169.72599083 230.82421875 156.453125 C232.23010146 151.13905761 233.61425821 145.81934793 235 140.5 C235.99962598 136.66656904 236.99972336 132.83326122 238 129 C238.2165625 128.16968262 238.433125 127.33936523 238.65625 126.48388672 C239.06848108 124.90484845 239.48138928 123.32598678 239.89501953 121.74731445 C240.29873522 120.20592862 240.70075061 118.66409646 241.10107422 117.12182617 C242.18268169 112.98461265 243.32229094 108.87306806 244.5390625 104.7734375 C248.48856882 91.28030234 250.64063543 77.98782459 252 64 C252.66 64 253.32 64 254 64 C254.09796875 65.23492187 254.1959375 66.46984375 254.296875 67.7421875 C254.44729193 69.45318004 254.59837056 71.16411449 254.75 72.875 C254.811875 73.67808594 254.87375 74.48117188 254.9375 75.30859375 C255.33342565 79.6307821 255.88519873 83.76359748 257.08015442 87.94067383 C260.29048478 99.43800996 259.75367612 107.59978404 256.46484375 118.9453125 C256.03623698 120.53942003 255.61136205 122.13453482 255.18989563 123.73054504 C254.0538122 127.99318339 252.86890259 132.24075171 251.67402649 136.48722458 C250.43258249 140.93329748 249.2382154 145.39196446 248.04003906 149.84985352 C246.30472051 156.29025792 244.55495953 162.72640411 242.78598595 169.15764713 C239.57270901 180.84034335 236.4587918 192.5469411 233.39453125 204.26953125 C232.95203546 205.96067673 232.50952565 207.65181853 232.06700134 209.34295654 C231.42120587 211.81166683 230.77556912 214.28041828 230.13030529 216.74926758 C228.11728183 224.45049079 226.09541752 232.14934508 224.05949974 239.84454918 C223.70050984 241.20281685 223.34234971 242.56130413 222.98507118 243.92002296 C222.50024619 245.76355002 222.01241685 247.6062862 221.52441406 249.44897461 C221.25244202 250.47929306 220.98046997 251.50961151 220.70025635 252.57115173 C220 255 220 255 219 257 C210.2745412 259.15016411 200.34898114 258.12692076 191.3984375 258.09765625 C189.70879153 258.09578778 188.019145 258.09436591 186.32949829 258.09336853 C181.91386379 258.0895771 177.49826294 258.07977618 173.0826416 258.06866455 C168.56421361 258.05837734 164.04578011 258.05385535 159.52734375 258.04882812 C150.6848805 258.03815041 141.84244446 258.02111523 133 258 C132.83035233 257.31617249 132.66070465 256.63234497 132.48591614 255.92779541 C131.70672826 252.7900874 130.92564343 249.6528545 130.14453125 246.515625 C129.8777356 245.44006348 129.61093994 244.36450195 129.33605957 243.25634766 C127.87457808 237.39253058 126.35350625 231.55901801 124.6875 225.75 C121.64830529 215.0601844 119.03805321 204.2586335 116.38549805 193.46777344 C114.54022734 185.98784318 112.62167535 178.54046182 110.53125 171.125 C107.57403057 160.62850218 104.97938586 150.04744063 102.375 139.45898438 C99.99895076 129.81370948 97.53626443 120.20918884 94.84094238 110.64794922 C92.34037283 101.7328325 90.1546112 92.74133369 87.94775391 83.75 C85.92415901 75.5198806 83.84147228 67.31825434 81.54296875 59.16015625 C79.0097382 50.16443102 76.71125697 41.1166187 74.46020508 32.04663086 C73.80501361 29.4073428 73.14593578 26.76904686 72.48632812 24.13085938 C72.0596721 22.41932659 71.63323182 20.70774001 71.20703125 18.99609375 C71.0143013 18.22406113 70.82157135 17.4520285 70.6230011 16.65660095 C69.33278338 11.45097428 68.1642177 6.23897967 67 1 C45.22 1 23.44 1 1 1 C0.67 1.99 0.34 2.98 0 4 C0 2.68 0 1.36 0 0 Z " fill="#AB943D" transform="translate(247,172)"/>
<path d="M0 0 C4.18001995 -0.08196118 7.92212105 0.10554296 12 1 C9.00089246 14.10506794 5.67510405 27.11171388 2.2578125 40.11328125 C1.69560367 42.25874517 1.13358686 44.40425942 0.57174683 46.54981995 C-0.93018546 52.28332919 -2.43467778 58.01616369 -3.93969727 63.74886322 C-5.5146534 69.74967066 -7.08731201 75.75108015 -8.66015625 81.75244141 C-10.89826926 90.29147101 -13.13712071 98.83030635 -15.37688065 107.36890411 C-19.03046683 121.29781369 -22.67757418 135.22840616 -26.3203125 149.16015625 C-42.22596883 209.98465591 -42.22596883 209.98465591 -49.3125 236.5625 C-49.5587915 237.48681824 -49.80508301 238.41113647 -50.05883789 239.36346436 C-50.72147873 241.84813925 -51.38565706 244.33239512 -52.05078125 246.81640625 C-52.23812332 247.51803391 -52.42546539 248.21966156 -52.6184845 248.94255066 C-53.34777818 251.65719297 -54.11079327 254.33237982 -55 257 C-59.0527516 257.98248524 -62.83861737 258.08159574 -67 258 C-66.30415924 249.95109572 -64.1793511 242.24154913 -62.1875 234.4375 C-61.84008193 233.05934881 -61.49307418 231.6810941 -61.14648438 230.30273438 C-59.13760418 222.33857388 -57.05347538 214.39659238 -54.92651367 206.46313477 C-53.61597344 201.56458055 -52.33789359 196.65779908 -51.0625 191.75 C-49.21767158 184.66418175 -47.36671857 177.58008354 -45.5 170.5 C-43.65548538 163.50289815 -41.8246738 156.50230147 -40 149.5 C-37.97566712 141.73149414 -35.94083314 133.96587023 -33.89453125 126.203125 C-32.2529441 119.9713674 -30.62518447 113.73605322 -29 107.5 C-28.23385522 104.56279126 -27.46755698 101.62562261 -26.70117188 98.68847656 C-26.26975006 97.03429236 -25.83868167 95.38001587 -25.40820312 93.72558594 C-23.23185788 85.3648575 -21.00894359 77.01740005 -18.74609375 68.6796875 C-18.54104721 67.9239444 -18.33600067 67.16820129 -18.1247406 66.38955688 C-17.91511185 65.61695526 -17.70548309 64.84435364 -17.48950195 64.04833984 C-17.27572906 63.26046082 -17.06195618 62.47258179 -16.84170532 61.66082764 C-16.40595542 60.05503529 -15.97006293 58.44928163 -15.5340271 56.84356689 C-13.20237145 48.25135656 -10.89245192 39.65494285 -8.6796875 31.03125 C-8.49829727 30.32434021 -8.31690704 29.61743042 -8.13002014 28.88909912 C-7.28072227 25.57241391 -6.4375085 22.25434732 -5.6003418 18.93457031 C-3.96960526 12.52025232 -2.1914576 6.24598924 0 0 Z " fill="#AA943E" transform="translate(678,172)"/>
<path d="M0 0 C1.59546338 2.86679106 2.32203426 5.21071322 2.67578125 8.46484375 C2.83071045 9.77400757 2.83071045 9.77400757 2.98876953 11.10961914 C3.09560059 12.04281982 3.20243164 12.97602051 3.3125 13.9375 C4.52599981 23.7165446 6.50040255 33.14472866 8.9140625 42.69140625 C9.10387695 43.44953613 9.29369141 44.20766602 9.48925781 44.98876953 C9.90096995 46.61003367 10.33387837 48.22590693 10.7734375 49.83984375 C11 52 11 52 10.09520817 53.77919006 C8.80181552 56.40186887 8.28118563 58.82585473 7.70323181 61.69311523 C7.46633133 62.85398651 7.22943085 64.01485779 6.98535156 65.21090698 C6.73229248 66.48064362 6.4792334 67.75038025 6.21850586 69.05859375 C5.94446801 70.41238224 5.66992417 71.76606838 5.39491272 73.11965942 C4.65024007 76.79211641 3.91258804 80.46595261 3.1761291 84.14006424 C2.40404843 87.98541884 1.62534926 91.82943239 0.8473053 95.67358398 C-0.62569871 102.95638885 -2.09303451 110.2403232 -3.55820888 117.52470684 C-5.70890024 128.21592801 -7.86818797 138.90541345 -10.02735806 149.59492493 C-10.34591461 151.1720879 -10.66446761 152.74925159 -10.98301697 154.32641602 C-11.13855008 155.09642598 -11.29408319 155.86643595 -11.45432943 156.65977955 C-12.37885579 161.23787846 -13.30178788 165.81629522 -14.2232877 170.39500427 C-14.79645851 173.2425474 -15.37030257 176.08995463 -15.94423866 178.9373436 C-16.33710212 180.887796 -16.72900472 182.83844186 -17.12088013 184.78909302 C-17.35496078 185.94996429 -17.58904144 187.11083557 -17.83021545 188.30688477 C-18.03317765 189.31566177 -18.23613985 190.32443878 -18.44525242 191.36378479 C-18.62831912 192.23373581 -18.81138582 193.10368683 -19 194 C-19.12725181 194.7567955 -19.25450361 195.513591 -19.38561153 196.2933197 C-19.68973382 197.13812645 -19.68973382 197.13812645 -20 198 C-33.60527208 202.53509069 -50.86815637 200.09550529 -65 200 C-65 199.67 -65 199.34 -65 199 C-56.09 199 -47.18 199 -38 199 C-37.67 195.7 -37.34 192.4 -37 189 C-36.29997356 185.66410477 -35.55949146 182.37037224 -34.75 179.0625 C-32.77545383 170.70385085 -31.08144841 162.32790502 -29.5625 153.875 C-27.90439336 144.69214191 -26.10541509 135.55637882 -24.125 126.4375 C-21.87049102 116.05083763 -19.65061539 105.65863034 -17.5 95.25 C-17.35341949 94.54117676 -17.20683899 93.83235352 -17.05581665 93.10205078 C-14.70912315 81.72547455 -12.53893587 70.32131058 -10.43713379 58.89724731 C-8.791891 49.96967326 -6.95990563 41.13711396 -4.8046875 32.3203125 C-2.22284218 21.66706725 -1.12538672 10.88272907 0 0 Z " fill="#AB663D" transform="translate(120,230)"/>
<path d="M0 0 C8.38080845 -0.02332189 16.761603 -0.04101513 25.14243603 -0.05181217 C29.03531744 -0.05699804 32.92817642 -0.06401617 36.82104492 -0.07543945 C40.58822661 -0.08642287 44.35538691 -0.09230905 48.12258339 -0.09487724 C49.54925179 -0.09670398 50.97591923 -0.10027001 52.40257835 -0.10573006 C61.31259812 -0.13842794 70.12435396 0.16603359 79 1 C81.79296485 6.94596007 83.42584663 12.9629011 85.01513672 19.32519531 C85.30015045 20.44661926 85.58516418 21.56804321 85.8788147 22.72344971 C86.81783645 26.42366437 87.74875092 30.12586871 88.6796875 33.828125 C89.33550322 36.41832749 89.99178813 39.00840649 90.64871216 41.59832764 C92.20195137 47.72607268 93.74948699 53.85524249 95.29482567 59.98498416 C97.54667236 68.91608281 99.80719599 77.84498541 102.06753731 86.77393723 C102.4049838 88.10700122 102.74242622 89.44006625 103.0798645 90.77313232 C103.32771861 91.75223733 103.32771861 91.75223733 103.58057988 92.75112224 C104.70121211 97.17889592 105.81931808 101.60730257 106.93649292 106.03594971 C108.35820696 111.67041553 109.78770063 117.30285604 111.22212982 122.93409729 C111.97911923 125.91770039 112.72609961 128.90368045 113.472229 131.89001465 C113.91738943 133.64391495 114.36297734 135.39770683 114.80908203 137.15136719 C115.00419813 137.94422749 115.19931423 138.73708778 115.40034294 139.55397415 C115.87179349 141.38632873 116.42726499 143.19673531 117 145 C117.66 145.33 118.32 145.66 119 146 C118.37726701 149.95408057 117.60940488 153.8228518 116.66015625 157.7109375 C113.76334261 169.77827689 111.08455519 181.62111147 110 194 C109.34 194 108.68 194 108 194 C107.97421875 193.22140625 107.9484375 192.4428125 107.921875 191.640625 C107.5532612 184.3688801 106.66258511 177.38565269 105.25 170.25 C105.10530273 169.50266602 104.96060547 168.75533203 104.81152344 167.98535156 C103.7170777 162.67673698 102.30904916 157.47720507 100.828125 152.265625 C96.81814462 138.10439358 93.47983633 123.76383718 90.00531006 109.46405029 C88.87130533 104.79817066 87.73469781 100.13293699 86.59375 95.46875 C86.43590467 94.82325447 86.27805935 94.17775894 86.11543083 93.51270294 C84.13906349 85.44602541 82.06376939 77.42320485 79.786026 69.43682861 C77.05193206 59.781512 74.78185649 50.00557416 72.4375 40.25 C71.50207409 36.35855109 70.56395597 32.46777924 69.62109375 28.578125 C69.39755219 27.6552771 69.17401062 26.7324292 68.94369507 25.78161621 C67.3630676 19.32173006 65.61182596 12.93912227 63.68383789 6.57324219 C63 4 63 4 63 1 C42.21 1 21.42 1 0 1 C0 0.67 0 0.34 0 0 Z " fill="#C27645" transform="translate(91,172)"/>
<path d="M0 0 C0.33 0 0.66 0 1 0 C1.14099121 1.05388916 1.28198242 2.10777832 1.42724609 3.19360352 C1.95507095 7.12856362 2.48972124 11.06257193 3.02636719 14.99633789 C3.25705252 16.69433055 3.48592191 18.392571 3.71289062 20.09106445 C4.04071829 22.54186379 4.37521181 24.99167786 4.7109375 27.44140625 C4.80998383 28.19273331 4.90903015 28.94406036 5.01107788 29.71815491 C5.64612292 34.29403031 6.72755053 38.5504814 8 43 C8 44.32 8 45.64 8 47 C7.34 47 6.68 47 6 47 C5.9160347 47.56515823 5.8320694 48.13031647 5.74555969 48.71260071 C4.12584367 58.56014232 1.40369607 68.11109091 -1.20703125 77.73046875 C-1.73026101 79.6713688 -2.25309484 81.61237563 -2.77555847 83.55348206 C-4.16377669 88.7066593 -5.5574738 93.85833895 -6.95245361 99.00968933 C-8.38589099 104.30613924 -9.81476765 109.60381926 -11.24414062 114.90136719 C-13.48255002 123.19521367 -15.72392465 131.48825319 -17.96728516 139.78076172 C-20.49169115 149.11299587 -23.00479559 158.44821319 -25.51171875 167.78515625 C-26.40569955 171.1091317 -27.30012425 174.43298709 -28.19491577 177.75674438 C-28.72944459 179.74409097 -29.26300179 181.73169915 -29.79556274 183.71957397 C-30.50638445 186.37120442 -31.22129335 189.02169493 -31.9375 191.671875 C-32.13731979 192.42134903 -32.33713959 193.17082306 -32.54301453 193.94300842 C-33.88564559 198.88564559 -33.88564559 198.88564559 -35 200 C-43.41747659 201.51791653 -52.11395144 201.12939018 -60.6328125 201.09765625 C-62.12067619 201.09578713 -63.6085405 201.09436556 -65.09640503 201.09336853 C-68.97938793 201.08958222 -72.86233239 201.07978594 -76.74530029 201.06866455 C-80.72081991 201.05836607 -84.69634584 201.05385298 -88.671875 201.04882812 C-96.44793404 201.0381595 -104.2239616 201.0211308 -112 201 C-112 200.67 -112 200.34 -112 200 C-91.87 200 -71.74 200 -51 200 C-49.68 194.39 -48.36 188.78 -47 183 C-46.05001558 179.54749907 -45.08592326 176.11658656 -44.0625 172.6875 C-42.03160733 165.74170562 -40.15271755 158.78035004 -38.4375 151.75 C-36.95992987 145.69841219 -35.37131424 139.71097926 -33.5625 133.75 C-31.48094687 126.88556618 -29.70901195 119.9660045 -28 113 C-26.30579474 106.09897667 -24.55845329 99.23934566 -22.5 92.4375 C-20.315251 85.21289281 -18.38344815 77.938773 -16.51611328 70.62597656 C-15.00967186 64.76178504 -13.42389054 58.92622066 -11.7578125 53.10546875 C-7.12361962 36.8258564 -3.3759044 20.94277391 -1.33789062 4.09008789 C-1 2 -1 2 0 0 Z " fill="#AA653E" transform="translate(278,229)"/>
<path d="M0 0 C1.74991334 -0.02715383 3.49994945 -0.04646551 5.25 -0.0625 C6.71179688 -0.07990234 6.71179688 -0.07990234 8.203125 -0.09765625 C10.67486245 -0.01135257 12.63346464 0.3596173 15 1 C21.13671112 28.62626528 27.02228778 56.30775244 32.84783363 84.00107956 C34.36311404 91.20234776 35.88606154 98.40183086 37.42700195 105.59765625 C38.79212797 111.97251578 40.14338688 118.35012879 41.4780125 124.73144639 C42.17886791 128.0802784 42.88618509 131.42741558 43.61032295 134.77129745 C44.40904701 138.4765909 45.1830307 142.18626339 45.95141602 145.89794922 C46.19072845 146.98056534 46.43004089 148.06318146 46.67660522 149.17860413 C48.06244287 156.03885802 47.84120567 161.27213567 46 168 C45.65857364 169.55684091 45.32417967 171.1152579 45 172.67578125 C44.8359668 173.43528076 44.67193359 174.19478027 44.50292969 174.97729492 C42.71274905 183.2894686 41.15000173 191.57169787 40 200 C38.00791961 196.66315366 37.7732772 194.11265226 37.67578125 190.2578125 C37.02379404 179.27204108 34.4618835 168.61807438 32.1875 157.875 C31.74328545 155.74757422 31.29992113 153.61997072 30.85742188 151.4921875 C30.2012289 148.33862354 29.54413879 145.18526887 28.883255 142.03268433 C27.54188634 135.63244047 26.2337423 129.2267137 24.9609375 122.8125 C23.04383865 113.15769843 21.04067969 103.5218146 19.01782227 93.88867188 C18.43344114 91.10567046 17.85040137 88.32239055 17.26757812 85.5390625 C15.63746717 77.76108975 14.00060961 69.98520289 12.31640625 62.21875 C11.25551527 57.28639047 10.31792885 52.35264586 9.5 47.375 C8.49198102 41.43888824 7.21755824 35.65010463 5.68359375 29.82421875 C4.74020122 25.92665988 4.15475606 21.99542243 3.5390625 18.03515625 C2.78551315 13.79234576 1.70193561 9.65622531 0.5859375 5.49609375 C0 3 0 3 0 0 Z " fill="#BFAC3F" transform="translate(382,173)"/>
<path d="M0 0 C8.3195075 -0.02325756 16.63900122 -0.04098308 24.95853329 -0.05181217 C28.82238355 -0.05701181 32.68621144 -0.06405592 36.55004883 -0.07543945 C40.28479289 -0.08637273 44.01951553 -0.09229878 47.75427437 -0.09487724 C49.1730845 -0.09671279 50.59189358 -0.10029684 52.0106945 -0.10573006 C59.42500755 -0.13297157 66.65085151 -0.02061697 74 1 C76.56437045 7.38242324 78.30030062 13.77801923 79.89160156 20.46362305 C80.16364914 21.58863724 80.43569672 22.71365143 80.71598816 23.87275696 C81.61232006 27.58460879 82.50149185 31.29813656 83.390625 35.01171875 C84.01931307 37.62134898 84.64840073 40.23087969 85.27801514 42.84028625 C86.76817826 49.02000489 88.25320785 55.20094505 89.73635936 61.38234979 C91.39716338 68.30314549 93.06346574 75.222613 94.7303586 82.14194429 C97.635386 94.20115585 100.53615912 106.26138334 103.43204117 118.32279491 C104.93318808 124.57218171 106.43946784 130.82028895 107.95251465 137.06680298 C108.27646106 138.40513051 108.60039889 139.74346012 108.92432785 141.08179188 C109.54030126 143.62658017 110.15756637 146.17104362 110.77553177 148.71535015 C111.05237179 149.85884835 111.32921181 151.00234655 111.61444092 152.18049622 C111.85840984 153.18594388 112.10237877 154.19139154 112.35374069 155.22730732 C113.60303469 160.58724301 114.0185219 163.94025421 112.75 169.375 C110.44408659 179.80355747 109.28801607 190.4073448 108 201 C107.67 201 107.34 201 107 201 C106.86537354 200.06039429 106.86537354 200.06039429 106.72802734 199.10180664 C104.51942993 183.94004671 101.5700803 169.14962321 97.82519531 154.296875 C96.36368984 148.45777149 94.96847315 142.60267174 93.5625 136.75 C92.97040755 134.29678918 92.3779579 131.84366454 91.78515625 129.390625 C90.02259604 122.09395302 88.26119247 114.79700222 86.5 107.5 C85.91667197 105.08333205 85.33333864 102.66666539 84.75 100.25 C81.25 85.75 77.75 71.25 74.25 56.75 C73.96068604 55.55181641 73.67137207 54.35363281 73.37329102 53.11914062 C72.79491056 50.72218455 72.21726391 48.32505128 71.64038086 45.92773438 C70.27655585 40.26409898 68.9052958 34.60256995 67.50784302 28.94714355 C66.84818965 26.27561333 66.1927317 23.60306151 65.53759766 20.93041992 C65.07342698 19.0443986 64.60319196 17.15987305 64.1328125 15.27539062 C63.85308594 14.13263672 63.57335937 12.98988281 63.28515625 11.8125 C63.03644775 10.80832031 62.78773926 9.80414063 62.53149414 8.76953125 C62 6 62 6 62 1 C41.54 1 21.08 1 0 1 C0 0.67 0 0.34 0 0 Z " fill="#C2AF42" transform="translate(473,172)"/>
<path d="M0 0 C24.75 0 49.5 0 75 0 C78.37247484 7.86910797 78.37247484 7.86910797 79.24609375 11.75 C79.44396484 12.60722656 79.64183594 13.46445313 79.84570312 14.34765625 C80.04099609 15.22292969 80.23628906 16.09820312 80.4375 17 C82.12045253 24.42312394 83.98332561 31.7812764 85.96264648 39.13085938 C87.62912796 45.32422562 89.21550362 51.53843387 90.8125 57.75 C91.51532243 60.47924464 92.21861714 63.20836753 92.921875 65.9375 C93.09711197 66.61778259 93.27234894 67.29806519 93.45289612 67.9989624 C95.14957717 74.58433288 96.85485791 81.16746362 98.5625 87.75 C98.84714111 88.84731445 99.13178223 89.94462891 99.42504883 91.07519531 C99.99702144 93.2799606 100.56904268 95.48471326 101.14111328 97.68945312 C102.5948356 103.29277169 104.04735043 108.89640326 105.5 114.5 C106.08332769 116.75000146 106.66666102 119.00000146 107.25 121.25 C110.75 134.75 114.25 148.25 117.75 161.75 C118.03866943 162.86342773 118.32733887 163.97685547 118.62475586 165.12402344 C119.20892558 167.37727279 119.79307267 169.63052801 120.37719727 171.88378906 C121.8225496 177.45912197 123.26827679 183.0343571 124.71484375 188.609375 C124.9986792 189.70354736 125.28251465 190.79771973 125.57495117 191.92504883 C126.14915147 194.13847475 126.72353245 196.35185381 127.2980957 198.56518555 C128.72106354 204.05070868 130.13944972 209.53735376 131.54710388 215.02682495 C132.25422854 217.78440997 132.96261689 220.54166997 133.67092896 223.2989502 C134.16863988 225.23898486 134.66431617 227.17954116 135.15991211 229.12011719 C137.0590351 236.51262383 139.0823039 243.84559966 141.2590332 251.16088867 C142 254 142 254 142 257 C139.03 257.33 136.06 257.66 133 258 C132.84442627 257.36723145 132.68885254 256.73446289 132.52856445 256.08251953 C128.79674673 240.86660652 128.79674673 240.86660652 124.6875 225.75 C121.63708712 215.06393822 119.03787962 204.25792734 116.38549805 193.46777344 C114.54022734 185.98784318 112.62167535 178.54046182 110.53125 171.125 C107.57403057 160.62850218 104.97938586 150.04744063 102.375 139.45898438 C99.99895076 129.81370948 97.53626443 120.20918884 94.84094238 110.64794922 C92.34037283 101.7328325 90.1546112 92.74133369 87.94775391 83.75 C85.92415901 75.5198806 83.84147228 67.31825434 81.54296875 59.16015625 C79.0097382 50.16443102 76.71125697 41.1166187 74.46020508 32.04663086 C73.80501361 29.4073428 73.14593578 26.76904686 72.48632812 24.13085938 C72.0596721 22.41932659 71.63323182 20.70774001 71.20703125 18.99609375 C71.0143013 18.22406113 70.82157135 17.4520285 70.6230011 16.65660095 C69.33278338 11.45097428 68.1642177 6.23897967 67 1 C45.22 1 23.44 1 1 1 C0.67 1.99 0.34 2.98 0 4 C0 2.68 0 1.36 0 0 Z " fill="#C97943" transform="translate(247,172)"/>
<path d="M0 0 C0.33 0 0.66 0 1 0 C1.33 2.97 1.66 5.94 2 9 C1.01 9.33 0.02 9.66 -1 10 C-1.125 2.25 -1.125 2.25 0 0 Z " fill="#C06D3C" transform="translate(278,229)"/>
<path d="M0 0 C1.76462683 3.08809695 2 4.23312136 2 8 C1.34 8 0.68 8 0 8 C-0.33 9.32 -0.66 10.64 -1 12 C-1.08159574 7.83861737 -0.98248524 4.0527516 0 0 Z " fill="#C26E3B" transform="translate(120,230)"/>
</svg>
